<svg width="309" height="191" viewBox="0 0 309 191" fill="none" xmlns="http://www.w3.org/2000/svg">
<g clip-path="url(#clip0_105_106)">
<path d="M6.54405 125.831C8.49755 129.451 12.6436 131.005 12.6436 131.005C12.6436 131.005 13.6223 126.69 11.6688 123.069C9.71534 119.449 5.56933 117.895 5.56933 117.895C5.56933 117.895 4.59055 122.211 6.54405 125.831Z" fill="#3F3D56"/>
<path d="M7.88674 124.64C11.4136 126.76 12.7719 130.972 12.7719 130.972C12.7719 130.972 8.41204 131.746 4.88517 129.625C1.35831 127.505 7.62939e-06 123.293 7.62939e-06 123.293C7.62939e-06 123.293 4.35987 122.519 7.88674 124.64Z" fill="#27AE61"/>
<path d="M192.52 65.7702C192.52 94.7164 175.299 104.823 154.057 104.823C132.814 104.823 115.594 94.7164 115.594 65.7702C115.594 36.8241 154.057 1.52588e-05 154.057 1.52588e-05C154.057 1.52588e-05 192.52 36.8241 192.52 65.7702Z" fill="#F2F2F2"/>
<path d="M152.655 100.395L153.049 76.17L169.443 46.1999L153.111 72.3697L153.288 61.4771L164.587 39.794L153.335 58.5946L153.654 39.0036L165.752 21.7411L153.704 35.9228L153.903 0L152.652 47.5555L152.755 45.5938L140.454 26.7786L152.558 49.3597L151.412 71.2393L151.377 70.6587L137.197 50.8587L151.334 72.7103L151.191 75.4467L151.165 75.4878L151.177 75.7125L148.269 131.223H152.154L152.621 102.551L166.724 80.7528L152.655 100.395Z" fill="#3F3D56"/>
<path d="M300.061 65.7702C300.061 94.7164 282.84 104.823 261.598 104.823C240.356 104.823 223.135 94.7164 223.135 65.7702C223.135 36.8241 261.598 1.52588e-05 261.598 1.52588e-05C261.598 1.52588e-05 300.061 36.8241 300.061 65.7702Z" fill="#F2F2F2"/>
<path d="M260.197 100.395L260.591 76.17L276.985 46.1999L260.652 72.3697L260.83 61.4771L272.128 39.794L260.876 58.5946L261.195 39.0036L273.294 21.7411L261.245 35.9228L261.444 0L260.194 47.5555L260.296 45.5938L247.995 26.7786L260.099 49.3597L258.953 71.2393L258.919 70.6587L244.738 50.8587L258.876 72.7103L258.732 75.4467L258.707 75.4878L258.719 75.7125L255.811 131.223H259.696L260.162 102.551L274.265 80.7528L260.197 100.395Z" fill="#3F3D56"/>
<path d="M29.5849 88.9996C37.7108 88.9996 44.2981 82.417 44.2981 74.297C44.2981 66.177 37.7108 59.5944 29.5849 59.5944C21.4591 59.5944 14.8718 66.177 14.8718 74.297C14.8718 82.417 21.4591 88.9996 29.5849 88.9996Z" fill="#FF6584"/>
<path d="M10.9175 101.952L8.7577 98.3544L28.9159 81.0884H80.7516V86.1243L62.0332 106.268L40.435 110.585L10.9175 101.952Z" fill="#3F3D56"/>
<path d="M89.6746 91.2209V79.9651H82.8881V83.5144L80.7516 81.0884L63.473 98.3544L60.5932 101.232L56.9937 115.621L63.473 131.448H96.5902V99.0739L89.6746 91.2209Z" fill="#CCCCCC"/>
<path d="M63.473 98.3545H8.75764V131.448H63.473V98.3545Z" fill="#F2F2F2"/>
<path d="M55.9137 108.786H44.3946V118.858H55.9137V108.786Z" fill="#3F3D56"/>
<path d="M39.715 108.426H29.6359V131.448H39.715V108.426Z" fill="#CCCCCC"/>
<path d="M18.1168 112.023V108.427H13.7972V112.023H17.7568H18.1168Z" fill="#3F3D56"/>
<path d="M17.7568 114.901H13.7972V118.498H18.1168V114.901H17.7568Z" fill="#3F3D56"/>
<path d="M25.3162 108.426H20.9966V112.024H25.3162V108.426Z" fill="#3F3D56"/>
<path d="M25.3162 114.901H20.9966V118.498H25.3162V114.901Z" fill="#3F3D56"/>
<path d="M78.9519 112.383V108.786H74.632V112.383H78.5918H78.9519Z" fill="#3F3D56"/>
<path d="M78.5918 115.261H74.632V118.858H78.9519V115.261H78.5918Z" fill="#3F3D56"/>
<path d="M86.1511 108.786H81.8314V112.383H86.1511V108.786Z" fill="#3F3D56"/>
<path d="M86.1511 115.261H81.8314V118.858H86.1511V115.261Z" fill="#3F3D56"/>
<path d="M114.804 101.932L112.644 98.335L132.803 81.0687H184.638V86.1046L165.92 106.249L144.322 110.565L114.804 101.932Z" fill="#3F3D56"/>
<path d="M193.562 91.2012V79.9453H186.775V83.4946L184.638 81.0686L167.36 98.3349L164.48 101.212L160.88 115.601L167.36 131.428H200.477V99.0542L193.562 91.2012Z" fill="#CCCCCC"/>
<path d="M167.36 98.3348H112.645V131.428H167.36V98.3348Z" fill="#F2F2F2"/>
<path d="M159.801 108.766H148.281V118.838H159.801V108.766Z" fill="#3F3D56"/>
<path d="M143.602 108.407H133.523V131.428H143.602V108.407Z" fill="#CCCCCC"/>
<path d="M122.004 112.004V108.407H117.684V112.004H121.644H122.004Z" fill="#3F3D56"/>
<path d="M121.644 114.881H117.684V118.479H122.004V114.881H121.644Z" fill="#3F3D56"/>
<path d="M129.203 108.407H124.883V112.004H129.203V108.407Z" fill="#3F3D56"/>
<path d="M129.203 114.882H124.883V118.479H129.203V114.882Z" fill="#3F3D56"/>
<path d="M182.839 112.363V108.767H178.519V112.363H182.479H182.839Z" fill="#3F3D56"/>
<path d="M182.479 115.241H178.519V118.838H182.839V115.241H182.479Z" fill="#3F3D56"/>
<path d="M190.038 108.766H185.718V112.364H190.038V108.766Z" fill="#3F3D56"/>
<path d="M190.038 115.241H185.718V118.838H190.038V115.241Z" fill="#3F3D56"/>
<path d="M215.573 101.932L213.414 98.335L233.572 81.0687H285.408V86.1046L266.689 106.249L245.091 110.565L215.573 101.932Z" fill="#3F3D56"/>
<path d="M294.331 91.2012V79.9453H287.544V83.4946L285.408 81.0686L268.129 98.3349L265.249 101.212L261.65 115.601L268.129 131.428H301.246V99.0542L294.331 91.2012Z" fill="#CCCCCC"/>
<path d="M268.129 98.3348H213.414V131.428H268.129V98.3348Z" fill="#F2F2F2"/>
<path d="M260.57 108.766H249.051V118.838H260.57V108.766Z" fill="#3F3D56"/>
<path d="M244.371 108.407H234.292V131.428H244.371V108.407Z" fill="#CCCCCC"/>
<path d="M222.773 112.004V108.407H218.453V112.004H222.413H222.773Z" fill="#3F3D56"/>
<path d="M222.413 114.881H218.453V118.479H222.773V114.881H222.413Z" fill="#3F3D56"/>
<path d="M229.972 108.407H225.653V112.004H229.972V108.407Z" fill="#3F3D56"/>
<path d="M229.972 114.882H225.653V118.479H229.972V114.882Z" fill="#3F3D56"/>
<path d="M283.608 112.363V108.767H279.288V112.363H283.248H283.608Z" fill="#3F3D56"/>
<path d="M283.248 115.241H279.288V118.838H283.608V115.241H283.248Z" fill="#3F3D56"/>
<path d="M290.807 108.766H286.488V112.364H290.807V108.766Z" fill="#3F3D56"/>
<path d="M290.807 115.241H286.488V118.838H290.807V115.241Z" fill="#3F3D56"/>
<path d="M206.166 110.062H205.624V131.447H206.166V110.062Z" fill="#3F3D56"/>
<path d="M211.166 112.787C211.2 120.265 205.935 126.351 205.935 126.351C205.935 126.351 200.615 120.314 200.58 112.836C200.546 105.359 205.811 99.2723 205.811 99.2723C205.811 99.2723 211.131 105.31 211.166 112.787Z" fill="#27AE61"/>
<path d="M107.564 109.521H107.022V130.905H107.564V109.521Z" fill="#3F3D56"/>
<path d="M112.564 112.246C112.598 119.724 107.333 125.81 107.333 125.81C107.333 125.81 102.013 119.772 101.978 112.295C101.944 104.817 107.208 98.7309 107.208 98.7309C107.208 98.7309 112.529 104.768 112.564 112.246Z" fill="#27AE61"/>
<path opacity="0.1" d="M112.564 112.246C112.598 119.724 107.333 125.81 107.333 125.81C107.333 125.81 102.013 119.772 101.978 112.295C101.944 104.817 107.208 98.7309 107.208 98.7309C107.208 98.7309 112.529 104.768 112.564 112.246Z" fill="black"/>
<path d="M100.521 109.521H99.9788V130.905H100.521V109.521Z" fill="#3F3D56"/>
<path d="M105.521 112.246C105.555 119.724 100.29 125.81 100.29 125.81C100.29 125.81 94.9697 119.772 94.9352 112.295C94.9007 104.817 100.165 98.7309 100.165 98.7309C100.165 98.7309 105.486 104.768 105.521 112.246Z" fill="#27AE61"/>
<path d="M309 130.907H1.00391V131.448H309V130.907Z" fill="#3F3D56"/>
<path d="M70.7355 114.709C70.7355 114.709 71.013 115.026 70.5376 115.641C70.0621 116.256 70.446 117.59 71.3493 117.624C72.2525 117.658 72.6906 118.036 72.4728 118.534C72.255 119.032 71.9934 120.215 72.977 120.036C73.9607 119.856 74.2716 120.247 74.0974 120.548C73.9233 120.848 74.5361 119.95 74.5361 119.95C74.5361 119.95 75.0842 120.766 75.757 120.194C76.4298 119.623 76.6973 114.445 75.3257 114.357C73.9541 114.269 70.7355 114.709 70.7355 114.709Z" fill="#2F2E41"/>
<path d="M77.689 139.334L78.0013 141.52H79.408L78.9391 139.022L77.689 139.334Z" fill="#FFB8B8"/>
<path d="M79.5642 140.193C79.5642 140.193 81.4396 141.911 80.9708 142.067C80.5019 142.223 78.7828 144.097 78.4703 144.253C78.1907 144.393 75.1884 145.347 75.6572 144.253C76.002 143.543 76.5446 142.946 77.22 142.536L77.5326 140.662L79.5642 140.193Z" fill="#F2F2F2"/>
<path opacity="0.1" d="M79.5642 140.193C79.5642 140.193 81.4396 141.911 80.9708 142.067C80.5019 142.223 78.7828 144.097 78.4703 144.253C78.1907 144.393 75.1884 145.347 75.6572 144.253C76.002 143.543 76.5446 142.946 77.22 142.536L77.5326 140.662L79.5642 140.193Z" fill="black"/>
<path d="M79.5643 137.694L79.8769 139.881H81.2834L80.8145 137.382L79.5643 137.694Z" fill="#FFB8B8"/>
<path d="M73.6871 131.891L75.7353 125.123C75.7353 125.123 72.2971 121.999 74.6414 121.062C76.9856 120.125 77.6107 124.81 77.6107 124.81L76.8293 132.931H73.7037L73.6871 131.891Z" fill="#FFB8B8"/>
<path d="M78.4703 126.919C78.4703 126.919 74.4311 132.096 75.0442 132.865C75.6572 133.634 76.7512 138.319 76.7512 138.319C76.7512 138.319 76.5949 140.193 77.22 140.193C77.8451 140.193 79.4079 139.881 79.4079 139.412C79.4079 138.944 78.0014 133.009 78.0014 133.009L82.0647 127.7L78.4703 126.919Z" fill="#27AE61"/>
<path d="M78.7829 127.231L82.8462 125.045C82.8462 125.045 85.6592 126.45 84.8778 127.7C84.0964 128.949 80.5019 132.228 80.5019 132.228C80.5019 132.228 81.5959 137.538 81.4396 137.694C81.2833 137.851 79.5642 138.475 79.0954 138.319C78.6266 138.163 76.1261 132.072 76.7512 131.76C77.3763 131.448 79.408 128.168 79.408 128.168L78.7829 127.231Z" fill="#27AE61"/>
<path d="M67.6869 186.981C67.6869 186.981 70.4999 188.699 70.8125 188.699C71.125 188.699 75.3446 189.792 73.4693 190.573C71.5939 191.354 64.405 190.261 64.5612 189.792C64.7175 189.324 64.5612 186.513 64.8738 186.513C65.1864 186.513 67.6869 186.981 67.6869 186.981Z" fill="#2F2E41"/>
<path d="M70.8125 186.731C70.8125 186.731 73.6255 188.449 73.9381 188.449C74.2506 188.449 78.4702 189.542 76.5948 190.323C74.7195 191.104 67.5306 190.011 67.6868 189.542C67.8431 189.074 67.6868 186.263 67.9994 186.263C68.312 186.263 70.8125 186.731 70.8125 186.731Z" fill="#2F2E41"/>
<path d="M67.5723 154.165C67.5723 154.165 68.312 158.402 69.0934 160.12C69.8748 161.838 68.9372 169.959 68.4683 171.208C67.9995 172.458 63.4673 187.294 64.8739 187.45C66.2804 187.606 69.0934 187.45 69.0934 187.45L73.6256 173.238L72.8442 154.186L67.5723 154.165Z" fill="#575A88"/>
<path opacity="0.1" d="M67.5723 154.165C67.5723 154.165 68.312 158.402 69.0934 160.12C69.8748 161.838 68.9372 169.959 68.4683 171.208C67.9995 172.458 63.4673 187.294 64.8739 187.45C66.2804 187.606 69.0934 187.45 69.0934 187.45L73.6256 173.238L72.8442 154.186L67.5723 154.165Z" fill="black"/>
<path d="M68.7809 153.78C68.7809 153.78 69.406 157.996 70.8125 158.933C72.219 159.87 71.7502 160.807 71.7502 160.807L71.1251 169.084C71.1251 169.084 65.0301 184.077 66.9055 185.951C68.7809 187.825 70.5 187.044 71.2814 186.888C72.0628 186.731 73.4693 183.452 72.6879 182.515C71.9065 181.578 74.2507 175.956 74.8758 175.019C75.501 174.082 74.8758 172.832 75.6572 172.52C76.4386 172.208 78.1577 170.177 78.1577 168.772C78.1577 167.366 80.3457 152.374 78.9391 151.437C77.5326 150.5 68.5169 153.371 68.5169 153.371L68.7809 153.78Z" fill="#575A88"/>
<path d="M65.8115 131.916C67.7104 131.916 69.2497 130.378 69.2497 128.48C69.2497 126.583 67.7104 125.045 65.8115 125.045C63.9127 125.045 62.3734 126.583 62.3734 128.48C62.3734 130.378 63.9127 131.916 65.8115 131.916Z" fill="#FFB8B8"/>
<path d="M73.6255 118.798C75.1791 118.798 76.4386 117.539 76.4386 115.987C76.4386 114.434 75.1791 113.176 73.6255 113.176C72.0719 113.176 70.8125 114.434 70.8125 115.987C70.8125 117.539 72.0719 118.798 73.6255 118.798Z" fill="#FFB8B8"/>
<path d="M68.1557 128.48C68.1557 128.48 70.0311 131.916 70.9688 131.916C71.9065 131.916 67.2181 135.508 67.2181 135.508C67.2181 135.508 65.6552 130.979 65.3427 130.823C65.0301 130.667 68.1557 128.48 68.1557 128.48Z" fill="#FFB8B8"/>
<path d="M68.7809 131.604C68.7809 131.604 64.7176 133.009 64.8738 133.478C65.0301 133.946 63.7799 135.039 63.7799 135.508C63.7799 135.977 63.4673 140.193 65.3427 143.629C67.2181 147.064 70.1874 149.563 68.7809 151.125C67.3743 152.687 65.1864 155.341 67.5306 155.341C69.8748 155.341 73.6256 151.906 77.0637 153.155C80.5019 154.404 79.7205 149.719 79.7205 149.719C79.7205 149.719 80.1894 146.127 79.2517 145.034C78.314 143.941 75.0321 136.133 75.0321 135.196C75.0321 134.259 71.9065 130.667 71.1251 130.667C70.3437 130.667 68.7809 131.604 68.7809 131.604Z" fill="#27AE61"/>
<path d="M74.407 117.705C74.407 117.705 75.6796 120.123 75.7465 120.553C75.8135 120.984 78.0014 117.705 78.0014 117.705L75.5009 115.987L74.407 117.705Z" fill="#FFB8B8"/>
<path d="M74.8758 119.579L77.5326 116.768L80.6582 118.173C80.6582 118.173 83.5732 124.576 83.7567 125.045C83.9401 125.513 79.0954 127.7 78.6265 127.7C78.1577 127.7 74.8758 122.858 74.8758 122.858C74.8758 122.858 74.0944 120.516 74.8758 119.579Z" fill="#F2F2F2"/>
<path d="M73.6254 123.327V126.138H75.501L74.8842 123.327H73.6254Z" fill="#FFB8B8"/>
<path d="M74.6956 125.435C74.4586 125.432 74.2263 125.501 74.0296 125.633C73.8329 125.765 73.6812 125.954 73.5947 126.175C73.4725 126.505 73.514 126.852 74.0944 126.997C75.3447 127.309 75.501 126.997 75.501 126.997C75.501 126.997 77.6713 126.684 77.2113 126.06C76.7512 125.435 75.501 125.435 75.501 125.435H74.6956Z" fill="#FFB8B8"/>
<path d="M81.4396 138.944C81.4396 138.944 83.3149 140.662 82.8461 140.818C82.3772 140.974 80.6582 142.848 80.3456 143.004C80.066 143.144 77.0637 144.097 77.5326 143.004C77.8773 142.293 78.4199 141.697 79.0954 141.286L79.4079 139.412L81.4396 138.944Z" fill="#F2F2F2"/>
<path d="M64.5865 125.836C64.8016 125.71 65.0557 125.553 65.0618 125.304C65.0562 125.212 65.024 125.124 64.9691 125.051C64.9142 124.978 64.8391 124.922 64.7529 124.89C64.5795 124.83 64.3959 124.806 64.2128 124.818C64.1426 124.814 64.0722 124.821 64.004 124.838C63.826 124.893 63.7235 125.074 63.5832 125.196C63.361 125.352 63.1057 125.454 62.8374 125.494C62.3986 125.608 61.9779 125.782 61.5873 126.012C61.5101 126.051 61.4426 126.107 61.3894 126.175C61.328 126.3 61.3006 126.44 61.31 126.579C61.2747 127.109 60.9568 127.57 60.7195 128.045C60.4821 128.52 60.3262 129.112 60.6048 129.564C60.7153 129.705 60.8185 129.852 60.9139 130.003C61.1113 130.414 60.8649 130.92 61.0075 131.353C61.0714 131.524 61.1738 131.677 61.3067 131.802C61.5812 132.078 61.9193 132.282 62.2915 132.397C62.6466 132.507 63.0872 132.579 63.2263 132.924C63.2572 133.08 63.3012 133.232 63.358 133.381C63.4215 133.456 63.4998 133.518 63.5881 133.563C63.6764 133.607 63.7728 133.633 63.8715 133.638C64.0894 133.688 64.3138 133.704 64.5367 133.686C64.6481 133.677 64.7565 133.645 64.8551 133.592C64.9538 133.539 65.0406 133.467 65.1105 133.379C65.1735 133.256 65.2515 133.141 65.3428 133.037C65.5691 132.848 65.9128 132.997 66.2034 132.947C66.3212 132.925 66.4301 132.87 66.5175 132.788C66.6049 132.706 66.667 132.601 66.6966 132.485C66.7046 132.361 66.7387 132.241 66.7968 132.131C66.9772 131.9 67.4521 132.063 67.5713 131.796C67.6487 131.622 67.4867 131.438 67.3301 131.33C67.0619 131.173 66.8046 130.999 66.5601 130.808C66.4386 130.711 66.3446 130.583 66.2873 130.439C66.23 130.294 66.2114 130.137 66.2333 129.983C66.3408 129.53 66.9325 129.281 66.9521 128.816C66.9437 128.682 66.9035 128.553 66.8348 128.438C66.7661 128.324 66.671 128.227 66.5573 128.157C66.3293 128.019 66.1106 127.866 65.9027 127.699C65.7625 127.563 65.6569 127.393 65.5046 127.272C65.2038 127.084 64.8558 126.986 64.5014 126.989C64.3132 126.97 63.5625 126.883 63.5921 126.596C63.6166 126.358 64.3955 125.948 64.5865 125.836Z" fill="#2F2E41"/>
<path d="M74.8758 119.423C74.8758 119.423 73.1567 120.047 73.1567 120.828C73.1567 121.609 72.3753 124.108 73.1567 124.108C73.9381 124.108 75.5009 123.508 75.5009 123.508L74.8758 119.423Z" fill="#F2F2F2"/>
<path d="M74.407 130.667C74.407 130.667 78.9391 129.105 79.0954 129.105C79.2517 129.105 81.4396 127.856 81.2833 127.387L80.6582 123.483C80.6582 123.483 78.1577 118.329 79.8768 118.329C81.5959 118.329 82.5336 122.39 82.5336 122.39C82.5336 122.39 86.2843 129.417 84.2527 130.979C82.221 132.541 73.7819 135.352 73.313 134.883C72.8442 134.415 74.407 130.667 74.407 130.667Z" fill="#FFB8B8"/>
<path d="M78.7829 120.516L79.8378 121.532L78.4703 122.858C78.4703 122.858 76.5949 122.077 76.7512 122.546C76.9075 123.014 77.8452 124.42 78.4703 124.42C79.0954 124.42 82.3489 122.39 82.3631 121.765C82.3773 121.14 80.3457 118.954 79.8768 118.798C79.408 118.642 78.7829 120.516 78.7829 120.516Z" fill="#FFB8B8"/>
<path d="M76.7993 119.427C76.7993 119.427 79.0954 121.453 79.408 121.453C79.7205 121.453 80.289 118.409 80.289 118.409C80.289 118.409 78.4363 117.203 77.75 117.532C77.0637 117.861 76.7993 119.427 76.7993 119.427Z" fill="#F2F2F2"/>
<path d="M68.7808 132.541C68.7808 132.541 68.7808 130.354 73.4693 130.354H75.5009L74.5632 135.508L71.4376 136.445L68.7808 132.541Z" fill="#27AE61"/>
<path d="M79.0222 114.848C78.5627 114.845 78.1037 114.817 77.6474 114.763C77.2891 113.897 76.8327 113.171 76.339 112.901C75.9399 112.595 75.4965 112.352 75.0241 112.18C73.9828 111.738 72.2494 112.013 72.1481 112.516C70.0991 113.494 70.6168 115.213 70.6168 115.213C70.9352 115.885 71.6495 115.587 72.2554 115.283C72.3116 115.526 72.4424 115.745 72.6295 115.91C72.8166 116.075 73.0506 116.178 73.2989 116.203C74.2996 116.241 74.7848 116.66 74.5436 117.212C74.3023 117.763 74.0124 119.074 75.1022 118.875C76.1919 118.675 76.5363 119.109 76.3434 119.442C76.1504 119.775 76.8293 118.78 76.8293 118.78C76.8293 118.78 77.4365 119.684 78.1818 119.051C78.2572 118.978 78.311 118.886 78.3371 118.785C78.5711 118.923 78.8472 118.971 79.1141 118.921C80.0069 118.522 79.4524 117.584 79.4524 117.584C79.4524 117.584 80.6443 117.402 80.2602 117.432C79.8762 117.462 79.6333 116.965 80.2831 116.068C80.9329 115.172 79.6243 114.868 79.0222 114.848Z" fill="#2F2E41"/>
<path d="M72.9761 114.145L72.5312 113.997L72.0871 115.33L72.5319 115.478L72.9761 114.145Z" fill="#27AE61"/>
<path d="M106.107 190.459H28.3633V191H106.107V190.459Z" fill="#3F3D56"/>
<path d="M273.243 165.014H195.499V165.555H273.243V165.014Z" fill="#3F3D56"/>
<path d="M252.848 116.395L257.217 115.543C257.217 115.543 258.283 111.923 259.561 112.349C260.84 112.775 258.709 116.395 258.709 116.395L252.635 119.164L252.848 116.395Z" fill="#A0616A"/>
<path d="M226.316 120.015L224.398 122.464C224.398 122.464 221.627 122.358 222.48 123.849C223.332 125.339 225.25 124.488 225.357 124.168C225.463 123.849 228.553 121.08 228.553 121.08L226.316 120.015Z" fill="#A0616A"/>
<path d="M234.148 117.194L235.746 116.342C235.746 116.342 242.566 115.809 245.123 117.513C247.68 119.217 234.361 119.43 234.361 119.43L234.148 117.194Z" fill="#27AE61"/>
<path d="M237.184 115.65C237.184 115.65 236.332 113.627 237.504 113.414C238.173 113.283 238.86 113.283 239.529 113.414L238.25 114.478L237.184 115.65Z" fill="#3F3D56"/>
<path opacity="0.1" d="M237.184 115.65C237.184 115.65 236.332 113.627 237.504 113.414C238.173 113.283 238.86 113.283 239.529 113.414L238.25 114.478L237.184 115.65Z" fill="black"/>
<path d="M231.324 127.895L228.234 127.682L228.767 128.64C228.767 128.64 224.504 129.918 225.89 133.538C226.862 135.975 228.039 138.326 229.406 140.566L230.791 143.228C230.791 143.228 233.668 143.654 233.775 142.802C233.881 141.95 233.775 141.524 233.242 141.098C232.753 140.658 232.449 140.05 232.389 139.395C232.389 138.969 232.496 138.543 232.176 138.33C231.857 138.117 231.75 137.797 231.75 137.159C231.75 136.52 230.578 134.177 230.578 134.177C230.578 134.177 234.307 134.071 235.48 135.029C236.652 135.987 240.488 139.608 240.488 139.608C240.7 139.83 240.879 140.081 241.021 140.353C241.234 140.779 241.234 140.992 241.66 141.205C242.086 141.418 241.766 142.27 241.66 142.376C241.553 142.483 240.488 146.742 240.488 146.742C240.488 146.742 239.316 148.765 240.594 148.871C241.873 148.978 243.045 149.084 243.152 148.871C243.27 148.576 243.413 148.291 243.578 148.02C243.898 147.487 243.578 146.316 243.578 146.316C243.578 146.316 246.668 142.376 245.709 139.927C244.75 137.478 242.725 131.941 242.725 131.941L239.635 130.663L233.988 128.64L231.324 127.895Z" fill="#2F2E41"/>
<path d="M231.111 142.696C231.111 142.696 230.471 145.145 230.258 145.251C230.045 145.358 227.701 147.381 229.299 147.7C230.898 148.02 232.07 147.913 232.389 147.594C232.709 147.274 232.603 146.955 233.135 146.848C233.668 146.742 234.627 146.422 234.521 145.677C234.414 144.932 233.881 142.909 233.562 142.696C233.242 142.483 231.111 142.696 231.111 142.696Z" fill="#2F2E41"/>
<path d="M240.381 148.126C240.381 148.126 239.422 148.871 239.955 150.256C240.488 151.64 241.234 153.131 241.234 153.131C241.234 153.131 242.086 155.793 243.471 155.367C243.721 155.278 243.942 155.126 244.114 154.925C244.286 154.725 244.402 154.482 244.451 154.223C244.549 153.845 244.565 153.452 244.499 153.068C244.432 152.684 244.284 152.318 244.064 151.996L243.258 150.788L242.406 148.552L240.381 148.126Z" fill="#2F2E41"/>
<path d="M237.717 116.821C237.717 116.821 236.439 116.715 236.226 117.034C236.012 117.353 235.053 121.613 236.226 122.038C237.398 122.464 240.914 123.21 241.447 122.677C241.98 122.145 242.193 117.46 242.193 117.46L237.717 116.821Z" fill="#A0616A"/>
<path opacity="0.1" d="M237.717 116.821C237.717 116.821 236.439 116.715 236.226 117.034C236.012 117.353 235.053 121.613 236.226 122.038C237.398 122.464 240.914 123.21 241.447 122.677C241.98 122.145 242.193 117.46 242.193 117.46L237.717 116.821Z" fill="black"/>
<path d="M235.799 120.335C235.799 120.335 237.291 121.826 238.25 121.613C239.209 121.4 241.447 120.441 241.66 120.015C241.873 119.589 244.537 119.483 244.537 119.483L241.66 127.469L243.684 134.177C243.684 134.177 244.856 132.793 241.66 132.686C238.463 132.58 234.201 130.983 233.455 128.853C233.455 128.853 228.767 128.214 228.553 128.108C228.34 128.001 229.086 127.362 229.086 127.362L232.176 126.511L234.414 123.636L235.799 120.335Z" fill="#F2F2F2"/>
<path d="M236.758 117.034C236.758 117.034 237.291 116.289 236.758 116.289C235.904 116.271 235.05 116.306 234.201 116.395C233.668 116.502 231.644 115.969 231.43 116.608C231.217 117.247 231.217 121.187 231.644 121.506C232.07 121.826 232.283 121.826 231.75 122.464C231.217 123.103 229.939 125.233 230.258 125.978C230.578 126.724 226.849 126.937 227.381 127.788C227.526 128.032 227.728 128.237 227.969 128.385C228.21 128.533 228.484 128.621 228.767 128.64C228.767 128.64 228.98 126.937 230.258 127.788C231.537 128.64 233.242 130.77 234.627 129.386C236.012 128.001 236.545 126.724 236.652 124.913C236.763 123.561 236.692 122.2 236.439 120.867C236.225 119.802 236.758 117.034 236.758 117.034Z" fill="#27AE61"/>
<path d="M242.299 119.057C242.299 119.057 243.152 119.802 242.299 121.613C241.447 123.423 239.209 127.682 241.021 130.45C242.832 133.219 243.578 133.964 243.152 134.497C242.892 134.834 242.744 135.243 242.725 135.668L243.898 135.242C244.026 134.371 244.24 133.515 244.537 132.686C244.963 131.622 243.684 128.427 243.684 128.427L244.111 124.275C244.111 124.275 245.816 121.613 246.029 121.506C246.242 121.4 245.602 116.821 245.602 116.821C245.602 116.821 244.537 116.502 244.004 116.821C243.471 117.14 242.299 119.057 242.299 119.057Z" fill="#27AE61"/>
<path d="M232.07 116.715H231.43L227.062 118.951C227.062 118.951 226.742 117.566 226.529 117.886C226.316 118.205 226.422 119.057 225.89 119.27C225.357 119.483 225.037 119.802 225.89 120.228C226.742 120.654 226.849 120.335 226.849 121.08C226.849 121.826 227.488 121.932 228.021 121.719C228.553 121.506 228.66 121.4 229.193 121.613C229.726 121.826 229.406 122.145 230.152 121.826C230.898 121.506 232.816 121.613 232.816 121.613L232.07 116.715Z" fill="#27AE61"/>
<path d="M244.857 117.034L245.602 116.821C245.602 116.821 247.84 117.034 248.373 117.034C248.906 117.034 249.438 116.927 249.758 116.927C250.078 116.927 251.676 116.715 251.889 116.502C252.102 116.289 253.061 115.756 253.168 116.076C253.274 116.395 254.447 118.418 253.381 119.376C252.315 120.335 252.102 119.909 251.463 120.335C250.824 120.761 245.709 121.613 245.602 121.506C245.496 121.4 244.857 117.034 244.857 117.034Z" fill="#27AE61"/>
<path d="M240.488 121.08C242.253 121.08 243.684 119.65 243.684 117.886C243.684 116.122 242.253 114.691 240.488 114.691C238.722 114.691 237.291 116.122 237.291 117.886C237.291 119.65 238.722 121.08 240.488 121.08Z" fill="#A0616A"/>
<path d="M238.135 118.014C238.172 118.084 238.194 118.16 238.202 118.238C238.244 118.419 238.346 118.581 238.491 118.698C238.636 118.814 238.816 118.88 239.002 118.883C238.987 118.951 238.987 119.022 239.001 119.091C239.015 119.16 239.043 119.225 239.084 119.282C239.125 119.339 239.177 119.387 239.238 119.422C239.299 119.458 239.366 119.48 239.436 119.488C239.652 119.211 239.813 118.896 239.911 118.558C239.935 118.426 239.99 118.301 240.072 118.194C240.199 118.087 240.36 118.027 240.527 118.023C241.377 117.914 242.233 117.85 243.09 117.832C243.207 117.841 243.324 117.817 243.428 117.763C243.668 117.608 243.588 117.234 243.436 116.991C243.136 116.517 242.68 116.161 242.147 115.986C241.758 115.882 241.361 115.816 240.959 115.79C240.428 115.705 239.892 115.649 239.355 115.623C238.813 115.598 238.277 115.742 237.82 116.033C237.499 116.259 236.974 116.891 237.231 117.29C237.272 117.354 237.402 117.386 237.458 117.451C237.533 117.539 237.533 117.673 237.619 117.754C237.762 117.888 238.021 117.845 238.135 118.014Z" fill="#2F2E41"/>
<path d="M240.488 112.562C240.488 112.562 236.865 113.84 237.185 115.65C237.504 117.46 238.463 119.589 240.488 119.483C242.512 119.376 243.578 117.174 243.578 117.174L243.045 114.159C243.045 114.159 241.021 112.562 240.488 112.562Z" fill="#3F3D56"/>
<path d="M240.031 118.951C240.031 118.951 241.455 117.407 242.172 118.303C242.172 118.303 242.139 118.258 240.031 118.951Z" fill="#2F2E41"/>
<path d="M242.72 158.435C240.81 158.435 238.447 157.803 236.143 155.517C230.506 149.922 225.149 149.361 225.096 149.356L225.116 149.143C225.17 149.148 230.602 149.717 236.294 155.366C239.218 158.268 242.237 158.446 244.254 158.084C245.587 157.842 246.856 157.331 247.984 156.582L248.11 156.754C246.958 157.52 245.662 158.044 244.3 158.292C243.779 158.387 243.25 158.434 242.72 158.435Z" fill="#2F2E41"/>
<path d="M227.967 153.823C228.674 153.823 229.246 153.251 229.246 152.545C229.246 151.839 228.674 151.267 227.967 151.267C227.261 151.267 226.689 151.839 226.689 152.545C226.689 153.251 227.261 153.823 227.967 153.823Z" fill="#2F2E41"/>
<path d="M237.025 159.786C237.731 159.786 238.303 159.213 238.303 158.508C238.303 157.802 237.731 157.23 237.025 157.23C236.318 157.23 235.746 157.802 235.746 158.508C235.746 159.213 236.318 159.786 237.025 159.786Z" fill="#2F2E41"/>
</g>
<defs>
<clipPath id="clip0_105_106">
<rect width="309" height="191" fill="white"/>
</clipPath>
</defs>
</svg>
