<svg width="120" height="67" viewBox="0 0 120 67" fill="none" xmlns="http://www.w3.org/2000/svg">
<g clip-path="url(#clip0_112_121)">
<path d="M55.1404 67H56.2692L56.354 66.5094C55.9583 66.6937 55.5532 66.8574 55.1404 67ZM58.9507 41.5558C57.7213 43.4023 56.6313 45.0553 55.681 46.5149C55.5909 44.7476 55.4849 42.9328 55.3524 41.081C55.2199 39.2293 55.0503 37.0716 54.8225 34.6132L53.3916 19.5408H42.7928L41.0758 29.2109L41.7011 34.8717L44.2183 57.5567C44.4356 59.5878 45.151 61.0808 46.3699 62.0515C46.7286 62.3431 47.1198 62.5927 47.5358 62.7954C48.524 63.2802 49.6138 63.5243 50.7154 63.5076C52.3645 63.5435 53.9891 63.1058 55.3948 62.2467C56.1088 61.8013 56.7716 61.2794 57.3715 60.6904L61.452 37.8629C60.4982 39.2768 59.6555 40.4954 58.9507 41.5558ZM37.504 34.8928H18.389L21.1871 19.5619H7.73715L0 62.8217H13.5188L16.4441 46.1298H38.7546L37.504 34.8928Z" fill="white"/>
<path d="M55.6704 46.536C55.5803 44.7687 55.4743 42.9539 55.3418 41.1021C55.2093 39.2504 55.0397 37.0927 54.8119 34.6342L53.381 19.5619H47.0217L44.2925 34.8928H41.6852L44.2024 57.5778C44.4197 59.6089 45.1351 61.1019 46.354 62.0726C46.7127 62.3642 47.1039 62.6138 47.5199 62.8165H52.7398L55.6545 46.4938C55.6589 46.4946 55.6631 46.4966 55.6666 46.4995C55.6701 46.5024 55.6727 46.5062 55.6743 46.5104C55.6759 46.5147 55.6764 46.5193 55.6757 46.5237C55.675 46.5282 55.6732 46.5324 55.6704 46.536ZM37.504 34.8928H18.389L21.1871 19.5619H7.73715L0 62.8217H13.5188L16.4441 46.1298H38.7546L37.504 34.8928Z" fill="#1B1B1B"/>
<path d="M120.005 19.5619L101.924 57.5989C101.144 59.4191 99.8565 60.9788 98.2141 62.0937C96.7665 63.0422 95.0717 63.5483 93.3387 63.5498C91.8517 63.6246 90.3838 63.1909 89.1786 62.3206C88.0898 61.4342 87.259 60.2739 86.7727 58.96L81.9661 46.7312C81.3125 45.05 80.7384 43.5729 80.2438 42.2997C79.7492 41.0265 79.327 39.8835 78.9773 38.8705C78.6328 37.8576 78.3148 36.9397 78.034 36.122C77.7531 35.3042 77.504 34.5076 77.2867 33.7268C76.8098 34.5076 76.2904 35.306 75.7287 36.122C75.1617 36.9397 74.5257 37.8576 73.8103 38.8705C73.0949 39.8835 72.2682 41.0177 71.3408 42.268L68.0604 46.6679L58.8977 58.96C58.4396 59.5938 57.9272 60.1869 57.3662 60.7326C56.7663 61.3216 56.1035 61.8435 55.3895 62.2889C53.9838 63.148 52.3592 63.5857 50.7101 63.5498C49.6086 63.5665 48.5187 63.3224 47.5305 62.8376C47.1145 62.6349 46.7234 62.3853 46.3646 62.0937C45.1458 61.123 44.4303 59.63 44.2131 57.5989L41.6958 34.9139L41.0705 29.2531L40.0106 19.583H53.3969L54.8278 34.6554C55.0398 37.1173 55.2164 39.2733 55.3577 41.1232C55.4902 42.975 55.5962 44.8161 55.6863 46.5571C56.6367 45.094 57.7266 43.441 58.956 41.598C59.6609 40.5429 60.5035 39.319 61.4733 37.9473C62.194 36.9186 62.9889 35.8371 63.8633 34.6131L71.664 23.7454C72.3174 22.8468 73.0441 22.0033 73.8368 21.2237C74.4338 20.6315 75.1139 20.1286 75.8559 19.7307C76.4944 19.3962 77.1836 19.1681 77.8962 19.0554C79.4057 18.8374 80.9389 18.8374 82.4484 19.0554C83.1054 19.1499 83.7353 19.3799 84.2979 19.7307C84.8828 20.1191 85.3896 20.613 85.7923 21.1868C86.3315 21.9779 86.7595 22.8388 87.0642 23.7454L90.9592 34.6765L92.3265 38.6543C92.7133 39.7991 93.0737 40.8331 93.3864 41.7563C93.699 42.6795 94.0011 43.5394 94.2608 44.315C94.5204 45.0905 94.7642 45.8502 94.9762 46.5782C95.5874 44.8548 96.294 43.0435 97.096 41.1443C97.8979 39.2451 98.8624 37.0892 99.9894 34.6765L106.81 19.6041L120.005 19.5619Z" fill="white"/>
<path d="M106.81 19.5619L99.9894 34.6342C98.8624 37.0505 97.8979 39.2064 97.096 41.1021C96.294 42.9978 95.5874 44.8091 94.9762 46.536C94.7642 45.8079 94.5257 45.0483 94.2608 44.2727C93.9958 43.4972 93.7308 42.6426 93.3864 41.7141C93.0419 40.7856 92.7027 39.7568 92.3265 38.612L90.9592 34.6342L87.0854 23.7032C86.7807 22.7966 86.3527 21.9357 85.8135 21.1446C85.4108 20.5708 84.904 20.0769 84.3191 19.6885C83.7565 19.3377 83.1265 19.1077 82.4696 19.0132C80.9601 18.7952 79.4269 18.7952 77.9174 19.0132C77.2048 19.1259 76.5156 19.354 75.8771 19.6885C75.1351 20.0864 74.455 20.5893 73.858 21.1815C73.0653 21.9611 72.3386 22.8046 71.6852 23.7032L63.8845 34.5709C63.0101 35.7685 62.2152 36.8764 61.4945 37.9051C60.5247 39.2768 59.6821 40.4954 58.9772 41.5558C57.7478 43.4023 56.6579 45.0553 55.7075 46.5149C55.6174 44.7476 55.5114 42.9327 55.3789 41.081C55.2464 39.2293 55.0769 37.0716 54.849 34.6131L53.4181 19.5408H40.0106L41.0705 29.2109L41.6958 34.8717L44.2131 57.5567C44.4303 59.5878 45.1458 61.0808 46.3646 62.0515C46.7234 62.3431 47.1145 62.5927 47.5305 62.7953C48.5187 63.2802 49.6086 63.5243 50.7101 63.5076C52.3592 63.5435 53.9838 63.1058 55.3895 62.2467C56.1035 61.8013 56.7663 61.2794 57.3662 60.6904C57.9272 60.1447 58.4396 59.5516 58.8977 58.9178L68.0604 46.6257L71.3408 42.2258C72.2682 40.9755 73.1002 39.8413 73.8103 38.8283C74.5204 37.8154 75.1617 36.8975 75.7287 36.0798C76.2957 35.262 76.7886 34.4654 77.2867 33.6846C77.504 34.4654 77.7531 35.2673 78.034 36.0798C78.3148 36.8922 78.6328 37.8154 78.9772 38.8283C79.3217 39.8413 79.7457 40.9861 80.2438 42.2575C80.7419 43.5289 81.3037 45.0061 81.9661 46.689L86.7727 58.9178C87.259 60.2316 88.0898 61.392 89.1786 62.2783C90.3838 63.1486 91.8517 63.5824 93.3387 63.5076C95.0717 63.5061 96.7665 63 98.2141 62.0515C99.8565 60.9366 101.144 59.3769 101.924 57.5567L119.995 19.5197L106.81 19.5619Z" fill="#27AE61"/>
<path d="M80.1961 15.8268C84.5863 15.8268 88.1452 12.2838 88.1452 7.91339C88.1452 3.54294 84.5863 0 80.1961 0C75.8059 0 72.2469 3.54294 72.2469 7.91339C72.2469 12.2838 75.8059 15.8268 80.1961 15.8268Z" fill="#27AE61"/>
<path d="M46.2798 15.8268C50.67 15.8268 54.2289 12.2838 54.2289 7.91339C54.2289 3.54294 50.67 0 46.2798 0C41.8896 0 38.3307 3.54294 38.3307 7.91339C38.3307 12.2838 41.8896 15.8268 46.2798 15.8268Z" fill="#27AE61"/>
</g>
<defs>
<clipPath id="clip0_112_121">
<rect width="120" height="67" fill="white"/>
</clipPath>
</defs>
</svg>
