<svg width="111" height="19" viewBox="0 0 111 19" fill="none" xmlns="http://www.w3.org/2000/svg">
<path d="M12.96 1.436L10.746 14H8.208L9.162 8.618H3.798L2.844 14H0.306L2.538 1.436H5.058L4.14 6.638H9.522L10.44 1.436H12.96ZM14.4603 8.978C14.6403 7.97 14.9943 7.076 15.5223 6.296C16.0623 5.516 16.7163 4.916 17.4843 4.496C18.2523 4.076 19.0623 3.866 19.9143 3.866C20.6583 3.866 21.2823 4.016 21.7863 4.316C22.3023 4.616 22.6803 4.994 22.9203 5.45L23.1723 4.028H25.7103L23.9463 14H21.4083L21.6783 12.542C21.2823 13.01 20.7663 13.4 20.1303 13.712C19.5063 14.012 18.8223 14.162 18.0783 14.162C17.3463 14.162 16.6983 14 16.1343 13.676C15.5703 13.34 15.1323 12.872 14.8203 12.272C14.5083 11.66 14.3523 10.952 14.3523 10.148C14.3523 9.776 14.3883 9.386 14.4603 8.978ZM22.2903 9.014C22.3383 8.702 22.3623 8.474 22.3623 8.33C22.3623 7.622 22.1523 7.07 21.7323 6.674C21.3243 6.278 20.8083 6.08 20.1843 6.08C19.7163 6.08 19.2603 6.194 18.8163 6.422C18.3843 6.65 18.0063 6.986 17.6823 7.43C17.3583 7.862 17.1423 8.378 17.0343 8.978C16.9983 9.206 16.9803 9.422 16.9803 9.626C16.9803 10.346 17.1843 10.916 17.5923 11.336C18.0003 11.744 18.5163 11.948 19.1403 11.948C19.6083 11.948 20.0643 11.834 20.5083 11.606C20.9523 11.366 21.3303 11.024 21.6423 10.58C21.9663 10.136 22.1823 9.614 22.2903 9.014ZM32.3036 0.68L29.9456 14H27.4076L29.7656 0.68H32.3036ZM37.8813 14.162C37.0293 14.162 36.2733 13.988 35.6133 13.64C34.9653 13.292 34.4613 12.8 34.1013 12.164C33.7413 11.528 33.5613 10.796 33.5613 9.968C33.5613 8.84 33.8253 7.814 34.3533 6.89C34.8933 5.954 35.6253 5.216 36.5493 4.676C37.4853 4.136 38.5233 3.866 39.6633 3.866C40.5153 3.866 41.2713 4.046 41.9313 4.406C42.6033 4.754 43.1193 5.246 43.4793 5.882C43.8513 6.518 44.0373 7.25 44.0373 8.078C44.0373 9.218 43.7673 10.25 43.2273 11.174C42.6873 12.098 41.9433 12.83 40.9953 13.37C40.0593 13.898 39.0213 14.162 37.8813 14.162ZM38.2233 12.002C38.8233 12.002 39.3693 11.828 39.8613 11.48C40.3533 11.132 40.7373 10.67 41.0133 10.094C41.2893 9.518 41.4273 8.912 41.4273 8.276C41.4273 7.556 41.2233 7.004 40.8153 6.62C40.4193 6.224 39.9153 6.026 39.3033 6.026C38.6913 6.026 38.1453 6.2 37.6653 6.548C37.1973 6.896 36.8313 7.364 36.5673 7.952C36.3033 8.528 36.1713 9.14 36.1713 9.788C36.1713 10.496 36.3573 11.042 36.7293 11.426C37.1133 11.81 37.6113 12.002 38.2233 12.002Z" fill="#1B1B1B"/>
<path d="M64.5078 1.49L58.5858 14H56.2638L55.2918 4.532L50.8458 14L48.5418 14.018L47.2098 1.49H49.3878L50.1798 11.678L54.7878 1.49H57.0918L57.9198 11.624L62.3118 1.49H64.5078ZM65.1843 8.996C65.3643 8 65.7243 7.118 66.2643 6.35C66.8163 5.582 67.4883 4.988 68.2803 4.568C69.0723 4.136 69.9003 3.92 70.7643 3.92C71.5443 3.92 72.1983 4.076 72.7263 4.388C73.2543 4.688 73.6503 5.066 73.9143 5.522L74.1663 4.082H76.2363L74.4903 14H72.4203L72.6903 12.524C72.2583 12.992 71.7123 13.382 71.0523 13.694C70.4043 14.006 69.6963 14.162 68.9283 14.162C68.1843 14.162 67.5183 13.994 66.9303 13.658C66.3543 13.322 65.8983 12.848 65.5623 12.236C65.2383 11.612 65.0763 10.898 65.0763 10.094C65.0763 9.734 65.1123 9.368 65.1843 8.996ZM73.3023 9.032C73.3503 8.804 73.3743 8.558 73.3743 8.294C73.3743 7.49 73.1343 6.86 72.6543 6.404C72.1863 5.936 71.5983 5.702 70.8903 5.702C70.3623 5.702 69.8463 5.834 69.3423 6.098C68.8383 6.35 68.4003 6.728 68.0283 7.232C67.6563 7.724 67.4103 8.312 67.2903 8.996C67.2423 9.224 67.2183 9.47 67.2183 9.734C67.2183 10.55 67.4523 11.198 67.9203 11.678C68.4003 12.146 68.9943 12.38 69.7023 12.38C70.2303 12.38 70.7463 12.248 71.2503 11.984C71.7543 11.72 72.1923 11.336 72.5643 10.832C72.9363 10.316 73.1823 9.716 73.3023 9.032ZM81.6775 5.828C82.0855 5.228 82.5655 4.76 83.1175 4.424C83.6815 4.088 84.3055 3.92 84.9895 3.92L84.6115 6.044H84.0895C83.2975 6.044 82.6615 6.242 82.1815 6.638C81.7015 7.034 81.3655 7.718 81.1735 8.69L80.2375 14H78.1855L79.9315 4.082H81.9835L81.6775 5.828ZM91.8717 3.92C92.6397 3.92 93.2937 4.076 93.8337 4.388C94.3857 4.688 94.7817 5.066 95.0217 5.522L95.2737 4.082H97.3437L95.5797 14.162C95.4117 15.074 95.0757 15.884 94.5717 16.592C94.0677 17.312 93.4137 17.876 92.6097 18.284C91.8057 18.692 90.8997 18.896 89.8917 18.896C89.0157 18.896 88.2477 18.752 87.5877 18.464C86.9277 18.188 86.4297 17.786 86.0937 17.258C85.7577 16.73 85.6137 16.106 85.6617 15.386H87.6957C87.7557 15.902 88.0137 16.316 88.4697 16.628C88.9257 16.952 89.5077 17.114 90.2157 17.114C91.0437 17.114 91.7577 16.862 92.3577 16.358C92.9577 15.854 93.3417 15.122 93.5097 14.162L93.7977 12.506C93.3657 12.974 92.8257 13.37 92.1777 13.694C91.5297 14.006 90.8277 14.162 90.0717 14.162C89.3157 14.162 88.6437 13.994 88.0557 13.658C87.4677 13.322 87.0057 12.848 86.6697 12.236C86.3457 11.612 86.1837 10.898 86.1837 10.094C86.1837 9.734 86.2197 9.368 86.2917 8.996C86.4717 8 86.8317 7.118 87.3717 6.35C87.9237 5.582 88.5957 4.988 89.3877 4.568C90.1797 4.136 91.0077 3.92 91.8717 3.92ZM94.4097 9.032C94.4577 8.804 94.4817 8.558 94.4817 8.294C94.4817 7.49 94.2417 6.86 93.7617 6.404C93.2937 5.936 92.7057 5.702 91.9977 5.702C91.4697 5.702 90.9537 5.834 90.4497 6.098C89.9457 6.35 89.5077 6.728 89.1357 7.232C88.7637 7.724 88.5177 8.312 88.3977 8.996C88.3497 9.224 88.3257 9.47 88.3257 9.734C88.3257 10.55 88.5597 11.198 89.0277 11.678C89.5077 12.146 90.1017 12.38 90.8097 12.38C91.3377 12.38 91.8537 12.248 92.3577 11.984C92.8617 11.72 93.2997 11.336 93.6717 10.832C94.0437 10.316 94.2897 9.716 94.4097 9.032ZM99.4909 8.996C99.6709 8 100.031 7.118 100.571 6.35C101.123 5.582 101.795 4.988 102.587 4.568C103.379 4.136 104.207 3.92 105.071 3.92C105.851 3.92 106.505 4.076 107.033 4.388C107.561 4.688 107.957 5.066 108.221 5.522L108.473 4.082H110.543L108.797 14H106.727L106.997 12.524C106.565 12.992 106.019 13.382 105.359 13.694C104.711 14.006 104.003 14.162 103.235 14.162C102.491 14.162 101.825 13.994 101.237 13.658C100.661 13.322 100.205 12.848 99.8689 12.236C99.5449 11.612 99.3829 10.898 99.3829 10.094C99.3829 9.734 99.4189 9.368 99.4909 8.996ZM107.609 9.032C107.657 8.804 107.681 8.558 107.681 8.294C107.681 7.49 107.441 6.86 106.961 6.404C106.493 5.936 105.905 5.702 105.197 5.702C104.669 5.702 104.153 5.834 103.649 6.098C103.145 6.35 102.707 6.728 102.335 7.232C101.963 7.724 101.717 8.312 101.597 8.996C101.549 9.224 101.525 9.47 101.525 9.734C101.525 10.55 101.759 11.198 102.227 11.678C102.707 12.146 103.301 12.38 104.009 12.38C104.537 12.38 105.053 12.248 105.557 11.984C106.061 11.72 106.499 11.336 106.871 10.832C107.243 10.316 107.489 9.716 107.609 9.032Z" fill="#27AE61"/>
</svg>
